<?xml version="1.0" encoding="utf-8"?>
<!-- Generator: Adobe Illustrator 27.0.0, SVG Export Plug-In . SVG Version: 6.00 Build 0)  -->
<svg version="1.1" id="Calque_1" xmlns="http://www.w3.org/2000/svg" xmlns:xlink="http://www.w3.org/1999/xlink" x="0px" y="0px"
	 viewBox="0 0 595.3 595.3" style="enable-background:new 0 0 595.3 595.3;" xml:space="preserve">
<style type="text/css">
	.st0{fill:#E30613;}
	.st1{fill:#3AAA35;}
	.st2{fill:#0069B4;}
</style>
<g>
	<circle class="st0" cx="187.9" cy="60.5" r="28.7"/>
	<circle class="st0" cx="255" cy="40.4" r="28.7"/>
	<circle class="st0" cx="325.2" cy="38.4" r="28.7"/>
	<circle class="st0" cx="393.2" cy="55" r="28.7"/>
	<path class="st0" d="M467.6,141c37.2,40.9,59.9,95.4,59.9,155c0,127.2-103.2,230.4-230.4,230.4S66.7,423.3,66.7,296.1
		c0-71.6,32.6-135.5,83.8-177.8l0,0c5-5.2,8.1-12.3,8.1-20c0-16-13-29-29-29c-6.1,0-11.9,2-16.6,5.2l0,0
		C49.6,127.3,8.9,207,8.9,296.1c0,159.2,129.1,288.2,288.2,288.2s288.2-129,288.2-288.2c0-75.6-29-144.3-76.7-195.7l0,0
		c-5-4.2-11.3-6.5-18.4-6.5c-16,0-29,13-29,29C461.3,129.8,463.6,136.1,467.6,141L467.6,141z"/>
</g>
<g>
	<circle class="st1" cx="108.8" cy="284.6" r="29.9"/>
	<circle class="st1" cx="126.4" cy="215.6" r="29.9"/>
	<circle class="st1" cx="168.5" cy="158.1" r="29.9"/>
	<path class="st1" d="M306.8,137.5c83.3,4.9,149.2,74.1,149.2,158.6c0,87.7-71.1,158.9-158.9,158.9c-69.7,0-128.8-44.8-150.3-107.1
		l-0.5-1.5c-4-11.7-15.1-20.1-28.2-20.1c-16.5,0-29.9,13.4-29.9,29.9c0,3.4,0.6,6.6,1.7,9.7l0.4,0.6
		c29.2,86.2,110.8,148.1,207,148.1c120.7,0,218.5-97.8,218.5-218.5C515.8,180,424.6,85,310.3,77.9l0,0c-0.6,0,0.6,0,0,0
		c-16.5,0-31.1,13.3-31.1,29.8C279,123.6,291.2,136.5,306.8,137.5L306.8,137.5z"/>
</g>
<g>
	<circle class="st2" cx="412.4" cy="316.4" r="28.8"/>
	<circle class="st2" cx="382.3" cy="377.3" r="28.8"/>
	<path class="st2" d="M428.1,232.8c2.2,4.1,3.8,9.5,3.8,14.5c0,15.9-12.9,28.8-28.8,28.8c-11.2,0-21.2-6.8-26-16.2l0,0
		c-14.1-30.1-44.9-51.3-80.3-51.3c-48.8,0-88.3,39.6-88.3,88.3c0,43.1,31.1,79,71.9,86.7l0,0c13.6,2.4,24,14.1,24,28.3
		c0,15.9-12.9,28.9-28.9,28.9c-2,0-5.9-0.5-7.8-0.9l0,0c-65.8-14.3-117-73.1-117-143.1c0-80.7,65.4-146.1,146.1-146.1
		C354.4,150.8,404.3,184.6,428.1,232.8L428.1,232.8z"/>
</g>
</svg>
